# xmcd
#
# Track frame offsets:
# 150
# 15010
# 29633
# 44638
# 59103
# 76228
# 87003
# 100663
# 117073
# 133145
#
# Disc length: 2016 seconds
#
#
# Revision: 3
# Processed by: cddbd v1.5.1PL2 Copyright (c) Steve Scherf et al.
# Submitted via: FreeRIP 2.945 
#
DISCID=7907de0a
DTITLE=Vern Gosdin - Nickels And Dimes And Love
DYEAR=1993
DGENRE=Country
TTITLE0=Nickles And Dimes And Love
TTITLE1=Back When
TTITLE2=Where The Tall Grass Grows
TTITLE3=Bury Me In A Jukebox
TTITLE4=Any Old Miracle
TTITLE5=I Like My Country Music Kinda Rock
TTITLE6=Two Good People With A Love Gone Bad (With Janie Frickie)
TTITLE7=What Are We Gonna Do About Me
TTITLE8=Gone In A Heartbeat
TTITLE9=A Better Time To Say Goodbye
EXTD=Columbia Records
EXTT0=
EXTT1=
EXTT2=
EXTT3=
EXTT4=
EXTT5=
EXTT6=
EXTT7=
EXTT8=
EXTT9=
PLAYORDER=
